<svg width="261" height="261" viewBox="0 0 261 261" fill="none" xmlns="http://www.w3.org/2000/svg">
<path d="M119.625 163.125V141.375C110.972 141.375 102.674 137.938 96.5556 131.819C90.4373 125.701 87 117.403 87 108.75C87 100.097 90.4373 91.799 96.5556 85.6806C102.674 79.5623 110.972 76.125 119.625 76.125V65.25C119.625 62.3658 120.771 59.5997 122.81 57.5602C124.85 55.5208 127.616 54.375 130.5 54.375C133.384 54.375 136.15 55.5208 138.19 57.5602C140.229 59.5997 141.375 62.3658 141.375 65.25V76.125H141.614C150.203 76.125 158.441 79.5371 164.514 85.6106C170.588 91.6841 174 99.9215 174 108.511C174 111.395 172.854 114.161 170.815 116.201C168.775 118.24 166.009 119.386 163.125 119.386C160.241 119.386 157.475 118.24 155.435 116.201C153.396 114.161 152.25 111.395 152.25 108.511C152.25 105.69 151.129 102.985 149.135 100.99C147.14 98.9955 144.435 97.875 141.614 97.875H141.375V119.625C150.028 119.625 158.326 123.062 164.444 129.181C170.563 135.299 174 143.597 174 152.25C174 160.903 170.563 169.201 164.444 175.319C158.326 181.438 150.028 184.875 141.375 184.875V195.75C141.375 198.634 140.229 201.4 138.19 203.44C136.15 205.479 133.384 206.625 130.5 206.625C127.616 206.625 124.85 205.479 122.81 203.44C120.771 201.4 119.625 198.634 119.625 195.75V184.875H119.07C110.565 184.875 102.408 181.496 96.3932 175.482C90.3788 169.467 87 161.31 87 152.805C87 149.92 88.1458 147.154 90.1852 145.115C92.2247 143.075 94.9908 141.93 97.875 141.93C100.759 141.93 103.525 143.075 105.565 145.115C107.604 147.154 108.75 149.92 108.75 152.805C108.753 155.541 109.841 158.164 111.776 160.099C113.711 162.034 116.334 163.122 119.07 163.125H119.625ZM141.375 163.125C144.259 163.125 147.025 161.979 149.065 159.94C151.104 157.9 152.25 155.134 152.25 152.25C152.25 149.366 151.104 146.6 149.065 144.56C147.025 142.521 144.259 141.375 141.375 141.375V163.125ZM119.625 97.875C116.741 97.875 113.975 99.0208 111.935 101.06C109.896 103.1 108.75 105.866 108.75 108.75C108.75 111.634 109.896 114.4 111.935 116.44C113.975 118.479 116.741 119.625 119.625 119.625V97.875ZM130.5 239.25C70.4374 239.25 21.75 190.563 21.75 130.5C21.75 70.4374 70.4374 21.75 130.5 21.75C190.563 21.75 239.25 70.4374 239.25 130.5C239.25 190.563 190.563 239.25 130.5 239.25ZM130.5 217.5C153.574 217.5 175.703 208.334 192.018 192.018C208.334 175.703 217.5 153.574 217.5 130.5C217.5 107.426 208.334 85.2974 192.018 68.9817C175.703 52.666 153.574 43.5 130.5 43.5C107.426 43.5 85.2974 52.666 68.9817 68.9817C52.666 85.2974 43.5 107.426 43.5 130.5C43.5 153.574 52.666 175.703 68.9817 192.018C85.2974 208.334 107.426 217.5 130.5 217.5Z" fill="#F4D35E"/>
</svg>
