<svg width="200" height="30" viewBox="0 0 200 30" fill="none" xmlns="http://www.w3.org/2000/svg">
<path d="M10.8977 0.919999C13.8577 0.919999 16.4443 1.50667 18.6577 2.68C20.871 3.85333 22.5777 5.50667 23.7777 7.64C25.0043 9.74667 25.6177 12.1867 25.6177 14.96C25.6177 17.7067 25.0043 20.1467 23.7777 22.28C22.5777 24.4133 20.8577 26.0667 18.6177 27.24C16.4043 28.4133 13.831 29 10.8977 29H0.377659V0.919999H10.8977ZM10.4577 23.08C13.0443 23.08 15.0577 22.3733 16.4977 20.96C17.9377 19.5467 18.6577 17.5467 18.6577 14.96C18.6577 12.3733 17.9377 10.36 16.4977 8.92C15.0577 7.48 13.0443 6.76 10.4577 6.76H7.21766V23.08H10.4577ZM49.0002 0.919999L39.0402 29H30.4802L20.5202 0.919999H27.8002L34.7602 22.12L41.7602 0.919999H49.0002Z" fill="#37FF8B"/>
<path d="M58.6052 0.919999V29H51.7652V0.919999H58.6052ZM86.882 29H80.042L68.602 11.68V29H61.762V0.919999H68.602L80.042 18.32V0.919999H86.882V29ZM116.4 0.919999L106.44 29H97.8802L87.9202 0.919999H95.2002L102.16 22.12L109.16 0.919999H116.4ZM124.299 6.4V12.08H133.459V17.36H124.299V23.52H134.659V29H117.459V0.919999H134.659V6.4H124.299ZM147.46 29.28C145.406 29.28 143.566 28.9467 141.94 28.28C140.313 27.6133 139.006 26.6267 138.02 25.32C137.06 24.0133 136.553 22.44 136.5 20.6H143.78C143.886 21.64 144.246 22.44 144.86 23C145.473 23.5333 146.273 23.8 147.26 23.8C148.273 23.8 149.073 23.5733 149.66 23.12C150.246 22.64 150.54 21.9867 150.54 21.16C150.54 20.4667 150.3 19.8933 149.82 19.44C149.366 18.9867 148.793 18.6133 148.1 18.32C147.433 18.0267 146.473 17.6933 145.22 17.32C143.406 16.76 141.926 16.2 140.78 15.64C139.633 15.08 138.646 14.2533 137.82 13.16C136.993 12.0667 136.58 10.64 136.58 8.88C136.58 6.26667 137.526 4.22667 139.42 2.76C141.313 1.26667 143.78 0.52 146.82 0.52C149.913 0.52 152.406 1.26667 154.3 2.76C156.193 4.22667 157.206 6.28 157.34 8.92H149.94C149.886 8.01333 149.553 7.30667 148.94 6.8C148.326 6.26667 147.54 6 146.58 6C145.753 6 145.086 6.22667 144.58 6.68C144.073 7.10666 143.82 7.73333 143.82 8.56C143.82 9.46667 144.246 10.1733 145.1 10.68C145.953 11.1867 147.286 11.7333 149.1 12.32C150.913 12.9333 152.38 13.52 153.5 14.08C154.646 14.64 155.633 15.4533 156.46 16.52C157.286 17.5867 157.7 18.96 157.7 20.64C157.7 22.24 157.286 23.6933 156.46 25C155.66 26.3067 154.486 27.3467 152.94 28.12C151.393 28.8933 149.566 29.28 147.46 29.28ZM180.309 0.919999V6.4H172.869V29H166.029V6.4H158.589V0.919999H180.309ZM188.782 6.4V12.08H197.942V17.36H188.782V23.52H199.142V29H181.942V0.919999H199.142V6.4H188.782Z" fill="white"/>
</svg>
